<svg width="20" height="20" viewBox="0 0 20 20" fill="none" xmlns="http://www.w3.org/2000/svg">
<g clip-path="url(#clip0_403_726)">
<path d="M9.375 1.2725C7.75497 1.38859 6.19922 1.9533 4.88192 2.90341C3.56462 3.85352 2.53776 5.15152 1.9163 6.65211C1.29483 8.1527 1.1033 9.79665 1.36313 11.3999C1.62297 13.0032 2.32391 14.5025 3.3875 15.73L9.375 9.74125V1.2725ZM10.625 1.2725V9.375H18.7275C18.5771 7.2758 17.6752 5.30112 16.187 3.81296C14.6989 2.32479 12.7242 1.42286 10.625 1.2725ZM18.7275 10.625H10.2587L4.27125 16.6125C5.49878 17.6757 6.99797 18.3764 8.60105 18.636C10.2041 18.8956 11.8478 18.704 13.3482 18.0826C14.8486 17.4612 16.1464 16.4345 17.0964 15.1174C18.0465 13.8003 18.6112 12.2448 18.7275 10.625ZM0 10C0 7.34784 1.05357 4.8043 2.92893 2.92893C4.8043 1.05357 7.34784 0 10 0C12.6522 0 15.1957 1.05357 17.0711 2.92893C18.9464 4.8043 20 7.34784 20 10C20 12.6522 18.9464 15.1957 17.0711 17.0711C15.1957 18.9464 12.6522 20 10 20C7.34784 20 4.8043 18.9464 2.92893 17.0711C1.05357 15.1957 0 12.6522 0 10Z" fill="#337674"/>
</g>
<defs>
<clipPath id="clip0_403_726">
<rect width="20" height="20" fill="white"/>
</clipPath>
</defs>
</svg>
