<svg width="40" height="40" viewBox="0 0 40 40" fill="none" xmlns="http://www.w3.org/2000/svg">
<path d="M14.1667 27C14.1667 27 13 27 13 25.8333C13 24.6667 14.1667 21.1667 20 21.1667C25.8333 21.1667 27 24.6667 27 25.8333C27 27 25.8333 27 25.8333 27H14.1667ZM20 20C20.9283 20 21.8185 19.6313 22.4749 18.9749C23.1313 18.3185 23.5 17.4283 23.5 16.5C23.5 15.5717 23.1313 14.6815 22.4749 14.0251C21.8185 13.3687 20.9283 13 20 13C19.0717 13 18.1815 13.3687 17.5251 14.0251C16.8687 14.6815 16.5 15.5717 16.5 16.5C16.5 17.4283 16.8687 18.3185 17.5251 18.9749C18.1815 19.6313 19.0717 20 20 20Z" fill="#1C1C1E"/>
</svg>
