<svg width="7" height="13" viewBox="0 0 7 13" fill="none" xmlns="http://www.w3.org/2000/svg">
<path fill-rule="evenodd" clip-rule="evenodd" d="M0.137713 0.137713C0.181255 0.0940599 0.232983 0.059426 0.289931 0.035795C0.34688 0.0121639 0.407931 0 0.469588 0C0.531245 0 0.592296 0.0121639 0.649244 0.035795C0.706193 0.059426 0.75792 0.0940599 0.801463 0.137713L6.42646 5.76271C6.47012 5.80626 6.50475 5.85798 6.52838 5.91493C6.55201 5.97188 6.56418 6.03293 6.56418 6.09459C6.56418 6.15624 6.55201 6.21729 6.52838 6.27424C6.50475 6.33119 6.47012 6.38292 6.42646 6.42646L0.801463 12.0515C0.713444 12.1395 0.594065 12.1889 0.469588 12.1889C0.34511 12.1889 0.225731 12.1395 0.137713 12.0515C0.0496939 11.9634 0.000245422 11.8441 0.000245422 11.7196C0.000245422 11.5951 0.0496939 11.4757 0.137713 11.3877L5.43178 6.09459L0.137713 0.801463C0.0940596 0.75792 0.0594256 0.706193 0.0357945 0.649245C0.0121635 0.592296 0 0.531245 0 0.469588C0 0.407931 0.0121635 0.34688 0.0357945 0.289931C0.0594256 0.232983 0.0940596 0.181256 0.137713 0.137713Z" fill="black"/>
</svg>
